# Wavefront Obj file
# 
# verts: 104 uv-s: 168
mtllib wooden_box_obj.mtl

g wooden_box

v 10.655686 13.103232 -14.346824
v -12.935496 -11.053016 -14.297983
v -10.707979 -13.192986 -14.357347
v 12.864563 10.978111 -14.357355
v -10.713326 -13.221533 -13.314091
v 12.903531 10.942157 -13.306009
v 10.669570 13.117430 -13.306853
v -12.950357 -11.038483 -13.305869
v -10.816955 13.331580 -13.007622
v 12.831045 13.332560 11.121346
v 10.608716 13.331716 13.308518
v -13.047125 13.339802 -10.817550
v 10.645493 14.383062 13.270324
v -13.018698 14.383060 -10.811598
v -10.831800 14.323695 -12.993072
v 12.817147 14.372530 11.107164
v 12.817147 -14.372530 11.107164
v -10.831800 -14.323695 -12.993072
v -13.018698 -14.383060 -10.811598
v 10.645493 -14.383062 13.270324
v -13.047125 -13.339802 -10.817550
v 10.608716 -13.331716 13.308518
v 12.831045 -13.332560 11.121346
v -10.816955 -13.331580 -13.007622
v 14.428151 -11.008690 13.075635
v 14.379315 13.091311 -10.573314
v 14.438682 10.909846 -12.760210
v 14.438684 -13.171831 10.903979
v 13.395422 10.915797 -12.788637
v 13.387339 -13.210027 10.867204
v 13.388182 -11.022871 13.089533
v 13.387201 13.105861 -10.558466
v -14.607290 -11.008690 -12.774739
v -14.558455 13.091311 10.874207
v -14.617819 10.909846 13.061107
v -14.617824 -13.171831 -10.603086
v -13.574559 10.915797 13.089533
v -13.566477 -13.210027 -10.566308
v -13.567320 -11.022871 -12.788637
v -13.566339 13.105861 10.859362
v -11.032954 12.877742 14.666725
v 13.056694 -10.781443 14.617883
v 10.874274 -12.967385 14.677245
v -13.197048 10.707033 14.677257
v 10.880215 -12.995814 13.633990
v -13.235259 10.670275 13.625911
v -11.047132 12.891647 13.626755
v 13.071249 -10.766603 13.625769
v -15.000000 14.960685 14.974105
v -14.999986 11.788881 11.813025
v -13.440471 11.723111 11.804866
v -11.753133 14.971861 11.746264
v -11.755007 13.444084 11.767446
v -11.755272 11.798341 14.996994
v -11.721765 11.744840 13.624202
v -15.000000 14.960685 -14.974105
v -15.000000 -14.960685 14.974105
v -15.000000 -14.960685 -14.974105
v 15.000000 14.960685 14.974105
v 15.000000 14.960685 -14.974105
v 15.000000 -14.960685 14.974105
v 15.000000 -14.960685 -14.974105
v -14.999986 11.788881 -11.813025
v -14.999986 -11.788881 11.813025
v -14.999986 -11.788881 -11.813025
v 14.999986 11.788881 11.813025
v 14.999986 11.788881 -11.813025
v 14.999986 -11.788881 11.813025
v 14.999986 -11.788881 -11.813025
v -13.440471 11.723111 -11.804866
v -13.440471 -11.723111 11.804866
v -13.440471 -11.723111 -11.804866
v 13.440471 11.723111 11.804866
v 13.440471 11.723111 -11.804866
v 13.440471 -11.723111 11.804866
v 13.440471 -11.723111 -11.804866
v -11.753133 14.971861 -11.746264
v -11.753133 -14.971861 11.746264
v -11.753133 -14.971861 -11.746264
v 11.753133 14.971861 11.746264
v 11.753133 14.971861 -11.746264
v 11.753133 -14.971861 11.746264
v 11.753133 -14.971861 -11.746264
v -11.755007 13.444084 -11.767446
v -11.755007 -13.444084 11.767446
v -11.755007 -13.444084 -11.767446
v 11.755007 13.444084 11.767446
v 11.755007 13.444084 -11.767446
v 11.755007 -13.444084 11.767446
v 11.755007 -13.444084 -11.767446
v -11.755272 11.798341 -14.996994
v -11.755272 -11.798341 14.996994
v -11.755272 -11.798341 -14.996994
v 11.755272 11.798341 14.996994
v 11.755272 11.798341 -14.996994
v 11.755272 -11.798341 14.996994
v 11.755272 -11.798341 -14.996994
v -11.721765 11.744840 -13.624202
v -11.721765 -11.744840 13.624202
v -11.721765 -11.744840 -13.624202
v 11.721765 11.744840 13.624202
v 11.721765 11.744840 -13.624202
v 11.721765 -11.744840 13.624202
v 11.721765 -11.744840 -13.624202
# 104 positions

vt 0.812518 0.475347
vt 0.812731 0.760104
vt 0.803965 0.759943
vt 0.804155 0.475354
vt 0.769258 0.760133
vt 0.769321 0.475347
vt 0.778116 0.475551
vt 0.778131 0.760120
vt 0.812518 0.475347
vt 0.812731 0.760104
vt 0.803965 0.759943
vt 0.804155 0.475354
vt 0.769258 0.760133
vt 0.769321 0.475347
vt 0.778116 0.475551
vt 0.778131 0.760120
vt 0.812518 0.475347
vt 0.812731 0.760104
vt 0.803965 0.759943
vt 0.804155 0.475354
vt 0.769258 0.760133
vt 0.769321 0.475347
vt 0.778116 0.475551
vt 0.778131 0.760120
vt 0.812518 0.475347
vt 0.812731 0.760104
vt 0.803965 0.759943
vt 0.804155 0.475354
vt 0.769258 0.760133
vt 0.769321 0.475347
vt 0.778116 0.475551
vt 0.778131 0.760120
vt 0.778131 0.760120
vt 0.778116 0.475551
vt 0.804155 0.475354
vt 0.803965 0.759943
vt 0.769258 0.760133
vt 0.769321 0.475347
vt 0.812518 0.475347
vt 0.812731 0.760104
vt 0.804155 0.475354
vt 0.803965 0.759943
vt 0.812731 0.760104
vt 0.812518 0.475347
vt 0.778131 0.760120
vt 0.778116 0.475551
vt 0.769321 0.475347
vt 0.769258 0.760133
vt 0.010000 0.465253
vt 0.010001 0.212834
vt 0.036734 0.239478
vt 0.036734 0.438610
vt 0.235459 0.438610
vt 0.262193 0.465253
vt 0.534747 0.314295
vt 0.547892 0.314849
vt 0.547892 0.512466
vt 0.534747 0.513020
vt 0.547823 0.301693
vt 0.746955 0.301693
vt 0.746886 0.314849
vt 0.010000 0.990000
vt 0.037206 0.962634
vt 0.235213 0.962633
vt 0.262419 0.990000
vt 0.010000 0.737144
vt 0.037206 0.764511
vt 0.534747 0.977107
vt 0.534747 0.778984
vt 0.547625 0.778968
vt 0.547625 0.977123
vt 0.547804 0.990000
vt 0.745989 0.977123
vt 0.745811 0.990000
vt 0.010000 0.474769
vt 0.036654 0.502118
vt 0.036654 0.700278
vt 0.010000 0.727626
vt 0.262195 0.474769
vt 0.235541 0.502118
vt 0.987677 0.099674
vt 0.987678 0.298558
vt 0.976104 0.298107
vt 0.976104 0.100124
vt 0.976386 0.088545
vt 0.778510 0.100124
vt 0.778228 0.088545
vt 0.235459 0.239478
vt 0.262193 0.212834
vt 0.497835 0.438610
vt 0.497832 0.239477
vt 0.524566 0.212834
vt 0.524568 0.465253
vt 0.272375 0.465252
vt 0.272374 0.212834
vt 0.299108 0.239477
vt 0.299109 0.438609
vt 0.760031 0.513020
vt 0.746887 0.512466
vt 0.760031 0.314295
vt 0.760031 0.745209
vt 0.746887 0.744655
vt 0.746887 0.547038
vt 0.760031 0.546484
vt 0.534747 0.546484
vt 0.547892 0.547038
vt 0.547892 0.744655
vt 0.534747 0.745209
vt 0.746955 0.525622
vt 0.547823 0.525622
vt 0.547823 0.533882
vt 0.746955 0.533882
vt 0.746955 0.757811
vt 0.547823 0.757811
vt 0.272374 0.989999
vt 0.299580 0.962632
vt 0.497587 0.962634
vt 0.524793 0.990000
vt 0.262419 0.737144
vt 0.235213 0.764511
vt 0.524793 0.737145
vt 0.497587 0.764511
vt 0.299579 0.764509
vt 0.272374 0.737142
vt 0.745989 0.778969
vt 0.758867 0.778984
vt 0.758867 0.977107
vt 0.745779 0.082191
vt 0.547624 0.082191
vt 0.547640 0.069313
vt 0.745763 0.069313
vt 0.745763 0.293433
vt 0.547640 0.293433
vt 0.547624 0.280555
vt 0.745779 0.280555
vt 0.758655 0.280376
vt 0.758655 0.082369
vt 0.745811 0.766092
vt 0.547804 0.766091
vt 0.534747 0.082369
vt 0.534747 0.280376
vt 0.272374 0.727626
vt 0.299723 0.700972
vt 0.497883 0.700972
vt 0.525232 0.727626
vt 0.262195 0.727626
vt 0.235541 0.700278
vt 0.525231 0.475431
vt 0.497882 0.502086
vt 0.299722 0.502086
vt 0.272374 0.475431
vt 0.780832 0.780437
vt 0.780832 0.978420
vt 0.769258 0.978871
vt 0.769258 0.779986
vt 0.778511 0.298107
vt 0.766937 0.298558
vt 0.766936 0.099674
vt 0.990000 0.779986
vt 0.990000 0.978872
vt 0.978426 0.978421
vt 0.978426 0.780437
vt 0.978708 0.768858
vt 0.780550 0.768858
vt 0.778229 0.309686
vt 0.976387 0.309686
vt 0.780550 0.990000
vt 0.978708 0.990000
# 168 texture coordinates

vn 0.700453 0.713626 0.010225
vn 0.700453 0.713626 0.010225
vn 0.700453 0.713626 0.010225
vn 0.700453 0.713626 0.010225
vn -0.700437 -0.712952 0.032980
vn -0.700437 -0.712952 0.032980
vn -0.700437 -0.712952 0.032980
vn -0.700437 -0.712952 0.032980
vn 0.008473 0.007589 0.999935
vn 0.008473 0.007589 0.999935
vn 0.008473 0.007589 0.999935
vn 0.008473 0.007589 0.999935
vn -0.010225 0.700145 -0.713928
vn -0.010225 0.700145 -0.713928
vn -0.010225 0.700145 -0.713928
vn -0.010225 0.700145 -0.713928
vn -0.032981 -0.700129 0.713254
vn -0.032981 -0.700129 0.713254
vn -0.032981 -0.700129 0.713254
vn -0.032981 -0.700129 0.713254
vn -0.999935 0.008470 -0.007593
vn -0.999935 0.008470 -0.007593
vn -0.999935 0.008470 -0.007593
vn -0.999935 0.008470 -0.007593
vn 0.010226 0.700145 0.713928
vn 0.010226 0.700145 0.713928
vn 0.010226 0.700145 0.713928
vn 0.010226 0.700145 0.713928
vn 0.032981 -0.700129 -0.713254
vn 0.032981 -0.700129 -0.713254
vn 0.032981 -0.700129 -0.713254
vn 0.032981 -0.700129 -0.713254
vn 0.999935 0.008470 0.007593
vn 0.999935 0.008470 0.007593
vn 0.999935 0.008470 0.007593
vn 0.999935 0.008470 0.007593
vn 0.713931 -0.010225 -0.700141
vn 0.713931 -0.010225 -0.700141
vn 0.713931 -0.010225 -0.700141
vn 0.713931 -0.010225 -0.700141
vn -0.713258 -0.032980 0.700126
vn -0.713258 -0.032980 0.700126
vn -0.713258 -0.032980 0.700126
vn -0.713258 -0.032980 0.700126
vn 0.007593 -0.999935 -0.008470
vn 0.007593 -0.999935 -0.008470
vn 0.007593 -0.999935 -0.008470
vn 0.007593 -0.999935 -0.008470
vn -0.008629 0.007411 -0.999935
vn -0.008629 0.007411 -0.999935
vn -0.008629 0.007411 -0.999935
vn -0.008629 0.007411 -0.999935
vn 0.715147 -0.698195 -0.032979
vn 0.715147 -0.698195 -0.032979
vn 0.715147 -0.698195 -0.032979
vn 0.715147 -0.698195 -0.032979
vn -0.715178 0.698868 -0.010225
vn -0.715178 0.698868 -0.010225
vn -0.715178 0.698868 -0.010225
vn -0.715178 0.698868 -0.010225
vn 0.713931 0.010225 -0.700141
vn 0.713931 0.010225 -0.700141
vn 0.713931 0.010225 -0.700141
vn 0.713931 0.010225 -0.700141
vn -0.713258 0.032980 0.700126
vn -0.713258 0.032980 0.700126
vn -0.713258 0.032980 0.700126
vn -0.713258 0.032980 0.700126
vn 0.007593 0.999935 -0.008470
vn 0.007593 0.999935 -0.008470
vn 0.007593 0.999935 -0.008470
vn 0.007593 0.999935 -0.008470
vn -1.000000 -0.000002 -0.000002
vn -1.000000 -0.000002 0.000002
vn -1.000000 -0.000002 0.000002
vn -1.000000 -0.000002 -0.000002
vn -1.000000 0.000002 -0.000002
vn -1.000000 0.000002 -0.000002
vn -0.005232 0.000000 -0.999986
vn -0.005232 0.000000 -0.999986
vn -0.005232 0.000000 -0.999986
vn -0.005232 0.000000 -0.999986
vn -0.042136 -0.999112 0.000000
vn -0.042136 -0.999112 0.000000
vn -0.042136 -0.999112 0.000000
vn -0.042136 -0.999112 0.000000
vn -0.001721 0.999997 0.001731
vn -0.001721 0.999997 0.001731
vn -0.001721 0.999997 -0.001731
vn -0.001721 0.999997 -0.001731
vn 0.001721 0.999997 0.001731
vn 0.001721 0.999997 0.001731
vn 0.000000 -0.013863 -0.999904
vn 0.000000 -0.013863 -0.999904
vn 0.000000 -0.013863 -0.999904
vn 0.000000 -0.013863 -0.999904
vn 0.999999 -0.001227 0.000000
vn 0.999999 -0.001227 0.000000
vn 0.999999 -0.001227 0.000000
vn 0.999999 -0.001227 0.000000
vn -0.003527 0.003619 0.999987
vn -0.003527 0.003619 0.999987
vn 0.003527 0.003619 0.999987
vn 0.003527 0.003619 0.999987
vn -0.003527 -0.003619 0.999987
vn -0.003527 -0.003619 0.999987
vn 0.999702 0.000000 0.024401
vn 0.999702 0.000000 0.024401
vn 0.999702 0.000000 0.024401
vn 0.999702 0.000000 0.024401
vn 0.000000 -0.999241 0.038943
vn 0.000000 -0.999241 0.038943
vn 0.000000 -0.999241 0.038943
vn 0.000000 -0.999241 0.038943
vn -1.000000 0.000002 0.000002
vn -1.000000 0.000002 0.000002
vn 1.000000 -0.000002 -0.000002
vn 1.000000 -0.000002 0.000002
vn 1.000000 -0.000002 0.000002
vn 1.000000 -0.000002 -0.000002
vn 1.000000 0.000002 -0.000002
vn 1.000000 0.000002 0.000002
vn 1.000000 0.000002 0.000002
vn 1.000000 0.000002 -0.000002
vn -0.005232 0.000000 0.999986
vn -0.005232 0.000000 0.999986
vn -0.005232 0.000000 0.999986
vn -0.005232 0.000000 0.999986
vn 0.005232 0.000000 -0.999986
vn 0.005232 0.000000 -0.999986
vn 0.005232 0.000000 -0.999986
vn 0.005232 0.000000 -0.999986
vn 0.005232 0.000000 0.999986
vn 0.005232 0.000000 0.999986
vn 0.005232 0.000000 0.999986
vn 0.005232 0.000000 0.999986
vn -0.042136 0.999112 0.000000
vn -0.042136 0.999112 0.000000
vn -0.042136 0.999112 0.000000
vn -0.042136 0.999112 0.000000
vn 0.042136 -0.999112 0.000000
vn 0.042136 -0.999112 0.000000
vn 0.042136 -0.999112 0.000000
vn 0.042136 -0.999112 0.000000
vn 0.042136 0.999112 0.000000
vn 0.042136 0.999112 0.000000
vn 0.042136 0.999112 0.000000
vn 0.042136 0.999112 0.000000
vn -0.001721 -0.999997 -0.001731
vn -0.001721 -0.999997 -0.001731
vn -0.001721 -0.999997 0.001731
vn -0.001721 -0.999997 0.001731
vn 0.001721 0.999997 -0.001731
vn 0.001721 0.999997 -0.001731
vn 0.001721 -0.999997 0.001731
vn 0.001721 -0.999997 0.001731
vn 0.001721 -0.999997 -0.001731
vn 0.001721 -0.999997 -0.001731
vn 0.000000 -0.013863 0.999904
vn 0.000000 -0.013863 0.999904
vn 0.000000 -0.013863 0.999904
vn 0.000000 -0.013863 0.999904
vn 0.000000 0.013863 -0.999904
vn 0.000000 0.013863 -0.999904
vn 0.000000 0.013863 -0.999904
vn 0.000000 0.013863 -0.999904
vn 0.000000 0.013863 0.999904
vn 0.000000 0.013863 0.999904
vn 0.000000 0.013863 0.999904
vn 0.000000 0.013863 0.999904
vn 0.999999 0.001227 0.000000
vn 0.999999 0.001227 0.000000
vn 0.999999 0.001227 0.000000
vn 0.999999 0.001227 0.000000
vn -0.999999 -0.001227 0.000000
vn -0.999999 -0.001227 0.000000
vn -0.999999 -0.001227 0.000000
vn -0.999999 -0.001227 0.000000
vn -0.999999 0.001227 0.000000
vn -0.999999 0.001227 0.000000
vn -0.999999 0.001227 0.000000
vn -0.999999 0.001227 0.000000
vn 0.003527 0.003619 -0.999987
vn 0.003527 0.003619 -0.999987
vn -0.003527 0.003619 -0.999987
vn -0.003527 0.003619 -0.999987
vn 0.003527 -0.003619 0.999987
vn 0.003527 -0.003619 0.999987
vn -0.003527 -0.003619 -0.999987
vn -0.003527 -0.003619 -0.999987
vn 0.003527 -0.003619 -0.999987
vn 0.003527 -0.003619 -0.999987
vn 0.999702 0.000000 -0.024401
vn 0.999702 0.000000 -0.024401
vn 0.999702 0.000000 -0.024401
vn 0.999702 0.000000 -0.024401
vn -0.999702 0.000000 0.024401
vn -0.999702 0.000000 0.024401
vn -0.999702 0.000000 0.024401
vn -0.999702 0.000000 0.024401
vn -0.999702 0.000000 -0.024401
vn -0.999702 0.000000 -0.024401
vn -0.999702 0.000000 -0.024401
vn -0.999702 0.000000 -0.024401
vn 0.000000 -0.999241 -0.038943
vn 0.000000 -0.999241 -0.038943
vn 0.000000 -0.999241 -0.038943
vn 0.000000 -0.999241 -0.038943
vn 0.000000 0.999241 0.038943
vn 0.000000 0.999241 0.038943
vn 0.000000 0.999241 0.038943
vn 0.000000 0.999241 0.038943
vn 0.000000 0.999241 -0.038943
vn 0.000000 0.999241 -0.038943
vn 0.000000 0.999241 -0.038943
vn 0.000000 0.999241 -0.038943
vn 0.000000 -1.000000 0.000000
vn 0.000000 -1.000000 0.000000
vn 0.000000 -1.000000 0.000000
vn 0.000000 -1.000000 0.000000
vn 0.000000 1.000000 0.000000
vn 0.000000 1.000000 0.000000
vn 0.000000 1.000000 0.000000
vn 0.000000 1.000000 0.000000
vn 0.000000 0.000000 -1.000000
vn 0.000000 0.000000 -1.000000
vn 0.000000 0.000000 -1.000000
vn 0.000000 0.000000 -1.000000
vn -1.000000 0.000000 0.000000
vn -1.000000 0.000000 0.000000
vn -1.000000 0.000000 0.000000
vn -1.000000 0.000000 0.000000
vn 0.000000 0.000000 1.000000
vn 0.000000 0.000000 1.000000
vn 0.000000 0.000000 1.000000
vn 0.000000 0.000000 1.000000
vn 1.000000 0.000000 0.000000
vn 1.000000 0.000000 0.000000
vn 1.000000 0.000000 0.000000
vn 1.000000 0.000000 0.000000
# 240 normals

usemtl Default
s 1
f 48/1/1 47/2/2 41/3/3 42/4/4
s 2
f 46/5/5 45/6/6 43/7/7 44/8/8
s 3
f 44/8/9 43/7/10 42/4/11 41/3/12
s 4
f 40/9/13 39/10/14 33/11/15 34/12/16
s 5
f 38/13/17 37/14/18 35/15/19 36/16/20
s 6
f 36/16/21 35/15/22 34/12/23 33/11/24
s 7
f 32/17/25 31/18/26 25/19/27 26/20/28
s 8
f 30/21/29 29/22/30 27/23/31 28/24/32
s 9
f 28/24/33 27/23/34 26/20/35 25/19/36
s 10
f 24/25/37 23/26/38 17/27/39 18/28/40
s 11
f 22/29/41 21/30/42 19/31/43 20/32/44
s 12
f 20/32/45 19/31/46 18/28/47 17/27/48
s 13
f 4/33/49 3/34/50 2/35/51 1/36/52
s 14
f 6/37/53 5/38/54 3/34/55 4/33/56
s 15
f 8/39/57 7/40/58 1/36/59 2/35/60
s 16
f 15/41/61 16/42/62 10/43/63 9/44/64
s 17
f 13/45/65 14/46/66 12/47/67 11/48/68
s 18
f 16/42/69 15/41/70 14/46/71 13/45/72
s 19
f 49/49/73 56/50/74 63/51/75 50/52/76
f 49/49/73 50/52/76 64/53/77 57/54/78
f 64/53/77 65/88/115 58/89/116 57/54/78
f 58/89/116 65/88/115 63/51/75 56/50/74
s 20
f 50/55/79 51/56/80 71/57/81 64/58/82
s 21
f 50/59/83 63/60/84 70/61/85 51/56/86
s 22
f 49/62/87 52/63/88 77/64/89 56/65/90
f 49/62/87 59/66/91 80/67/92 52/63/88
f 60/119/153 81/120/154 80/67/92 59/66/91
f 77/64/89 81/120/154 60/119/153 56/65/90
s 23
f 52/68/93 80/69/94 87/70/95 53/71/96
s 24
f 52/72/97 53/71/98 84/73/99 77/74/100
s 25
f 49/75/101 54/76/102 94/77/103 59/78/104
f 49/75/101 57/79/105 92/80/106 54/76/102
f 61/146/187 96/147/188 92/80/106 57/79/105
f 94/77/103 96/147/188 61/146/187 59/78/104
s 26
f 54/81/107 92/82/108 99/83/109 55/84/110
s 27
f 54/85/111 55/84/112 101/86/113 94/87/114
s 28
f 66/90/117 67/91/118 60/92/119 59/93/120
f 61/94/121 62/95/122 69/96/123 68/97/124
f 61/94/121 68/97/124 66/90/117 59/93/120
f 60/92/119 67/91/118 69/96/123 62/95/122
s 29
f 65/98/125 72/99/126 70/61/127 63/100/128
s 30
f 68/101/129 75/102/130 73/103/131 66/104/132
s 31
f 67/105/133 74/106/134 76/107/135 69/108/136
s 32
f 71/57/137 72/99/138 65/109/139 64/110/140
s 33
f 73/103/141 74/106/142 67/111/143 66/112/144
s 34
f 68/113/145 69/114/146 76/107/147 75/102/148
s 35
f 58/115/149 79/116/150 78/117/151 57/118/152
f 61/121/155 82/122/156 83/123/157 62/124/158
f 78/117/151 82/122/156 61/121/155 57/118/152
f 58/115/149 62/124/158 83/123/157 79/116/150
s 36
f 84/73/159 88/125/160 81/126/161 77/127/162
s 37
f 85/128/163 89/129/164 82/130/165 78/131/166
s 38
f 79/132/167 83/133/168 90/134/169 86/135/170
s 39
f 79/136/171 86/135/172 85/128/173 78/137/174
s 40
f 81/138/175 88/125/176 87/70/177 80/139/178
s 41
f 82/140/179 89/129/180 90/134/181 83/141/182
s 42
f 60/142/183 95/143/184 91/144/185 56/145/186
f 58/148/189 93/149/190 97/150/191 62/151/192
f 91/144/185 93/149/190 58/148/189 56/145/186
f 60/142/183 62/151/192 97/150/191 95/143/184
s 43
f 98/152/193 100/153/194 93/154/195 91/155/196
s 44
f 101/86/197 103/156/198 96/157/199 94/158/200
s 45
f 95/159/201 97/160/202 104/161/203 102/162/204
s 46
f 95/163/205 102/162/206 98/152/207 91/164/208
s 47
f 96/165/209 103/156/210 99/83/211 92/166/212
s 48
f 93/167/213 100/153/214 104/161/215 97/168/216
s 49
f 86/135/217 90/134/218 89/129/219 85/128/220
s 50
f 53/71/221 87/70/222 88/125/223 84/73/224
s 51
f 102/162/225 104/161/226 100/153/227 98/152/228
s 52
f 72/99/229 71/57/230 51/56/231 70/61/232
s 53
f 103/156/233 101/86/234 55/84/235 99/83/236
s 54
f 76/107/237 74/106/238 73/103/239 75/102/240

# 72 faces
